<?xml version="1.0" standalone="no"?>
<!DOCTYPE svg PUBLIC "-//W3C//DTD SVG 1.1//EN" "http://www.w3.org/Graphics/SVG/1.1/DTD/svg11.dtd" >
<svg xmlns="http://www.w3.org/2000/svg">
<metadata>Generated by IcoMoon</metadata>
<defs>
<font id="font-wander-crests" horiz-adv-x="512">
<font-face units-per-em="512" ascent="506.88" descent="-5.12" />
<missing-glyph horiz-adv-x="512" />
<glyph unicode="&#x20;" d="" horiz-adv-x="5.12" />
<glyph unicode="&#x61;" d="M250.172 505.109l-3.281-0.844c0 0-43.745-10.986-62.422-12.89l-0.359-0.031-0.359-0.063c-36.762-5.911-114.281-11.641-114.281-11.641l-11.141-0.813-0.438-11.172c0 0-4.111-101.231 0.016-153.781 2.349-29.907 6.109-62.26 14.375-89.735l0.125-0.438 0.156-0.406c27.513-72.435 67.743-121.81 121.875-164.422 16.589-13.050 48.422-35.156 48.422-35.156l6.953-4.828 7.063 4.656c0 0 31.791 20.834 48.688 34.125 54.134 42.599 94.363 91.96 121.875 164.406l0.156 0.406 0.125 0.438c8.265 27.478 12.026 59.827 14.375 89.735 4.127 52.553 0.015 153.781 0.015 153.781l-0.438 11.172-11.14 0.813c0 0-77.517 5.73-114.281 11.64l-0.36 0.063-0.36 0.032c-18.206 1.856-62.109 14.015-62.109 14.015l-3.25 0.938zM249.813 479.219c7.861-2.253 40.94-11.521 62.469-13.844 30.813-4.954 83.046-9.302 105.219-11.031 0.801-24.738 2.841-99.155-0.344-139.719-2.279-29.017-6.050-59.927-13.25-84.078-25.999-68.255-62.356-112.727-113.813-153.219-11.892-9.354-31.301-22.403-39.922-28.156-8.559 6.007-28.090 19.782-40.266 29.36-51.456 40.505-87.814 84.99-113.813 153.235-7.201 24.147-10.972 55.062-13.25 84.078-3.185 40.562-1.145 114.981-0.344 139.719 22.173 1.729 74.407 6.078 105.219 11.031 21.087 2.26 54.125 10.576 62.094 12.625z" />
<glyph unicode="&#x62;" d="M250.172 505.109l-3.281-0.844c0 0-43.745-10.986-62.422-12.89l-0.359-0.031-0.359-0.063c-36.762-5.911-114.281-11.641-114.281-11.641l-11.141-0.813-0.438-11.172c0 0-4.111-101.231 0.016-153.781 2.349-29.907 6.109-62.26 14.375-89.735l0.125-0.438 0.156-0.406c27.513-72.435 67.743-121.81 121.875-164.422 16.589-13.050 48.422-35.156 48.422-35.156l6.953-4.828 7.063 4.656c0 0 31.791 20.834 48.688 34.125 54.134 42.599 94.363 91.96 121.875 164.406l0.156 0.406 0.125 0.438c8.265 27.478 12.026 59.827 14.375 89.735 4.127 52.553 0.015 153.781 0.015 153.781l-0.438 11.172-11.14 0.813c0 0-77.517 5.73-114.281 11.64l-0.36 0.063-0.36 0.031c-18.206 1.856-62.109 14.016-62.109 14.016zM249.813 479.219c7.861-2.254 40.94-11.521 62.469-13.844 30.813-4.954 83.046-9.303 105.219-11.032 0.801-24.737 2.841-99.155-0.344-139.719-2.279-29.017 0.18-40.238-6.241-58.938-327.823 0.431 3.341-0.2-321.051 0-5.643 17.916-4.742 31.14-7.020 60.157-3.185 40.562-1.145 114.981-0.344 139.719 22.173 1.729 74.407 6.077 105.219 11.031 21.087 2.26 54.125 10.577 62.094 12.625z" />
<glyph unicode="&#x63;" d="M250.172 497.11l-3.281-0.844c0 0-43.745-10.986-62.422-12.89l-0.359-0.031-0.359-0.063c-36.762-5.911-114.281-11.641-114.281-11.641l-11.141-0.813-0.438-11.172c0 0-4.111-101.231 0.016-153.781 2.349-29.907 6.109-62.26 14.375-89.735l0.125-0.438 0.156-0.406c27.513-72.435 67.743-121.81 121.875-164.422 16.589-13.050 48.422-35.156 48.422-35.156l6.953-4.828 7.063 4.656c0 0 31.791 20.834 48.688 34.125 54.134 42.599 94.363 91.96 121.875 164.406l0.156 0.406 0.125 0.438c8.265 27.478 12.026 59.827 14.375 89.735 4.127 52.553 0.015 153.781 0.015 153.781l-0.438 11.172-11.14 0.813c0 0-77.517 5.73-114.281 11.64l-0.36 0.063-0.36 0.032c-18.205 1.856-62.109 14.015-62.109 14.015zM249.813 471.219c7.861-2.254 40.94-11.521 62.469-13.844 30.813-4.954 83.046-9.302 105.219-11.031 0.801-24.738 2.841-99.155-0.344-139.719-2.279-29.017-6.050-59.927-13.25-84.078-25.999-68.255-62.356-112.727-113.813-153.219-11.892-9.354-31.301-22.403-39.922-28.156-0.111 430.634-0.427-3.399-0.359 430.047z" />
<glyph unicode="&#x64;" d="M250.172 505.109l-3.281-0.844c0 0-43.745-10.986-62.422-12.89l-0.359-0.031-0.359-0.063c-36.762-5.911-114.281-11.641-114.281-11.641l-11.141-0.813-0.438-11.172c0 0-4.111-101.231 0.016-153.781 2.349-29.907 6.109-62.26 14.375-89.735l0.125-0.438 0.156-0.406c27.513-72.435 67.743-121.81 121.875-164.422 16.589-13.050 48.422-35.156 48.422-35.156l6.953-4.828 7.063 4.656c0 0 31.791 20.834 48.688 34.125 54.134 42.599 94.363 91.96 121.875 164.406l0.156 0.406 0.125 0.438c8.265 27.478 12.026 59.827 14.375 89.735 4.127 52.553 0.015 153.781 0.015 153.781l-0.438 11.172-11.14 0.813c0 0-77.517 5.73-114.281 11.64l-0.36 0.063-0.36 0.031c-18.205 1.856-62.109 14.016-62.109 14.016zM421.050 365.244c1.615-108.449-9.943-110.546-17.144-134.697-25.999-68.255-62.356-112.727-113.813-153.219-11.892-9.354-31.301-22.403-39.922-28.156-8.559 6.007-28.090 19.782-40.266 29.36-51.456 40.505-87.814 84.99-113.813 153.235-7.201 24.147-20.317 29.363-17.922 133.918 345.808-0.252 342.879-0.44 342.879-0.44z" />
<glyph unicode="&#x65;" d="M250.172 505.109l-3.281-0.844c0 0-43.745-10.986-62.422-12.89l-0.359-0.031-0.359-0.063c-36.762-5.911-114.281-11.641-114.281-11.641l-11.141-0.813-0.438-11.172c0 0-4.111-101.231 0.016-153.781 2.349-29.907 6.109-62.26 14.375-89.735l0.125-0.438 0.156-0.406c27.513-72.435 67.743-121.81 121.875-164.422 16.589-13.050 48.422-35.156 48.422-35.156l6.953-4.828 7.063 4.656c0 0 31.791 20.834 48.688 34.125 54.134 42.598 94.363 91.96 121.875 164.406l0.156 0.406 0.125 0.438c8.265 27.478 12.026 59.827 14.375 89.735 4.127 52.553 0.015 153.781 0.015 153.781l-0.438 11.172-11.14 0.813c0 0-77.517 5.73-114.281 11.64l-0.36 0.063-0.36 0.032c-18.206 1.856-62.109 14.015-62.109 14.015z" />
<glyph unicode="&#x66;" d="M250.172 505.109l-3.281-0.844c0 0-43.745-10.986-62.422-12.89l-0.359-0.031-0.359-0.063c-36.762-5.911-114.281-11.641-114.281-11.641l-11.141-0.813-0.438-11.172c0 0-4.111-101.231 0.016-153.781 2.349-29.907 6.109-62.26 14.375-89.735l0.125-0.438 0.156-0.406c27.513-72.435 67.743-121.81 121.875-164.422 16.589-13.050 48.422-35.156 48.422-35.156l6.953-4.828 2.688 1.765v-0.656l2.141 2.078 2.234 1.469c0 0 31.791 20.834 48.688 34.125 54.134 42.599 94.363 91.96 121.875 164.406l0.156 0.406 0.125 0.438c8.265 27.478 12.026 59.827 14.375 89.734 4.127 52.553 0.015 153.781 0.015 153.781l-0.438 11.172-11.14 0.813c0 0-77.517 5.73-114.281 11.64l-0.36 0.063-0.36 0.031c-18.206 1.856-62.109 14.016-62.109 14.016l-3.25 0.938zM253.938 478.063c11.921-3.322 39.534-10.658 58.344-12.688 30.813-4.954 83.046-9.302 105.219-11.031 0.801-24.738 2.841-99.155-0.344-139.719-1.398-17.804-3.375-36.315-6.344-53.547l-157.813 0.922 0.938 216.063zM89.234 262h163.266v-211.265c-0.714-0.478-1.717-1.154-2.328-1.563-8.559 6.007-28.090 19.782-40.266 29.36-51.456 40.505-87.814 84.99-113.813 153.235-2.757 9.246-4.999 19.49-6.859 30.235z" />
<glyph unicode="&#x67;" d="M250.172 505.109l-3.281-0.844c0 0-43.745-10.986-62.422-12.89l-0.359-0.031-0.359-0.063c-36.762-5.911-114.281-11.641-114.281-11.641l-11.141-0.813-0.438-11.172c0 0-4.111-101.231 0.016-153.781 2.349-29.907 6.109-62.26 14.375-89.735l0.125-0.438 0.156-0.406c27.513-72.435 67.743-121.81 121.875-164.422 16.589-13.050 48.422-35.156 48.422-35.156l6.953-4.828 7.063 4.656c0 0 31.791 20.834 48.688 34.125 54.134 42.599 94.363 91.96 121.875 164.406l0.156 0.406 0.125 0.438c8.265 27.478 12.026 59.827 14.375 89.735 4.127 52.553 0.015 153.781 0.015 153.781l-0.438 11.172-11.14 0.813c0 0-77.517 5.73-114.281 11.64l-0.36 0.063-0.36 0.032c-18.206 1.856-62.109 14.015-62.109 14.015l-3.25 0.938zM249.813 479.219c7.861-2.253 40.94-11.521 62.469-13.844 30.813-4.954 83.046-9.302 105.219-11.031 0.522-16.094 1.553-53.199 1.344-88.344h-337.688c-0.242 35.502 0.817 73.283 1.344 89.563 22.173 1.729 74.407 6.077 105.219 11.031 21.087 2.26 54.125 10.576 62.094 12.625zM84.234 300h331.64c-1.856-19.286-4.49-38.765-8.453-56h-314.563c-4.037 17.171-6.731 36.655-8.625 56zM120.828 178.969l258.515-0.906c-23.135-40.521-52.295-71.654-89.25-100.735-11.892-9.354-31.301-22.403-39.922-28.156-8.559 6.007-28.090 19.782-40.266 29.36-36.859 29.015-65.971 60.067-89.078 100.438z" />
<glyph unicode="&#x68;" d="M250.172 505.109l-3.281-0.844c0 0-43.745-10.986-62.422-12.89l-0.359-0.031-0.359-0.063c-36.762-5.911-114.281-11.641-114.281-11.641l-11.141-0.813-0.438-11.172c0 0-4.111-101.231 0.016-153.781 2.349-29.907 6.109-62.26 14.375-89.735l0.125-0.438 0.156-0.406c27.513-72.435 67.743-121.81 121.875-164.422 16.589-13.050 48.422-35.156 48.422-35.156l6.953-4.828 7.063 4.656c0 0 31.791 20.834 48.688 34.125 54.134 42.599 94.363 91.96 121.875 164.406l0.156 0.406 0.125 0.438c8.265 27.478 12.026 59.827 14.375 89.735 4.127 52.553 0.015 153.781 0.015 153.781l-0.438 11.172-11.14 0.813c0 0-77.517 5.73-114.281 11.64l-0.36 0.063-0.36 0.032c-18.206 1.856-62.109 14.015-62.109 14.015zM251.813 237.219l165.688 217.125c0 0 2.841-99.155-0.344-139.719-2.279-29.017-6.050-59.927-13.25-84.078-25.999-68.255-62.356-112.727-113.813-153.219-11.892-9.355-31.301-22.403-39.922-28.156-8.559 6.007-28.090 19.782-40.266 29.36-51.456 40.505-87.814 84.99-113.813 153.235-7.201 24.147-10.972 55.062-13.25 84.078-3.185 40.562-0.344 139.719-0.344 139.719z" />
<glyph unicode="&#x69;" d="M250.172 505.109l-3.281-0.844c0 0-43.745-10.986-62.422-12.89l-0.359-0.031-0.359-0.063c-36.762-5.911-114.281-11.641-114.281-11.641l-11.141-0.813-0.438-11.172c0 0-4.111-101.231 0.016-153.781 2.349-29.907 6.109-62.26 14.375-89.735l0.125-0.438 0.156-0.406c27.513-72.435 67.743-121.81 121.875-164.422 16.589-13.050 48.422-35.156 48.422-35.156l6.953-4.828 7.063 4.656c0 0 31.791 20.834 48.688 34.125 54.134 42.599 94.363 91.96 121.875 164.406l0.156 0.406 0.125 0.438c8.265 27.478 12.026 59.827 14.375 89.735 4.127 52.553 0.015 153.781 0.015 153.781l-0.438 11.172-11.14 0.813c0 0-77.517 5.73-114.281 11.64l-0.36 0.063-0.36 0.032c-18.206 1.856-62.109 14.015-62.109 14.015l-3.25 0.938zM245.609 478.156l169-190.25c-2.342-20.45-5.689-40.542-10.703-57.359-25.999-68.255-62.356-112.727-113.813-153.219-11.892-9.354-31.301-22.403-39.922-28.156-8.559 6.007-28.090 19.782-40.266 29.36-51.456 40.505-87.814 84.99-113.813 153.235-7.201 24.147-10.972 55.062-13.25 84.078-3.185 40.562-1.145 114.981-0.344 139.719 22.173 1.729 74.407 6.078 105.219 11.031 18.403 1.972 45.889 8.556 57.891 11.563zM338.047 461.859c28.854-3.424 62.714-6.21 79.453-7.515 0.483-14.901 1.406-47.821 1.375-80.516l-80.828 88.031z" />
<glyph unicode="&#x6a;" d="M249.828 505.109l3.281-0.844c0 0 43.746-10.986 62.422-12.89l0.36-0.031 0.36-0.063c36.762-5.911 114.281-11.641 114.281-11.641l11.14-0.813 0.438-11.172c0 0 4.111-101.231-0.015-153.781-2.349-29.907-6.108-62.26-14.375-89.735l-0.125-0.438-0.156-0.406c-27.512-72.435-67.743-121.81-121.875-164.422-16.589-13.050-48.422-35.156-48.422-35.156l-6.953-4.828-7.063 4.656c0 0-31.791 20.834-48.688 34.125-54.134 42.599-94.362 91.96-121.875 164.406l-0.156 0.406-0.125 0.438c-8.265 27.478-12.026 59.827-14.375 89.735-4.127 52.553-0.016 153.781-0.016 153.781l0.438 11.172 11.141 0.813c0 0 77.517 5.73 114.281 11.64l0.359 0.063 0.359 0.032c18.206 1.856 62.109 14.015 62.109 14.015l3.25 0.938zM254.391 478.156l-169-190.25c2.342-20.45 5.689-40.542 10.703-57.359 25.999-68.255 62.356-112.727 113.813-153.219 11.892-9.354 31.302-22.403 39.922-28.156 8.559 6.007 28.090 19.782 40.266 29.36 51.455 40.505 87.814 84.99 113.813 153.235 7.2 24.147 10.971 55.062 13.25 84.078 3.185 40.562 1.145 114.981 0.344 139.719-22.173 1.729-74.408 6.078-105.219 11.031-18.402 1.972-45.889 8.556-57.891 11.563zM161.953 461.859c-28.854-3.424-62.714-6.21-79.453-7.515-0.483-14.901-1.406-47.821-1.375-80.516l80.828 88.031z" />
<glyph unicode="&#x6b;" d="M250.172 505.109l-3.281-0.844c0 0-43.745-10.986-62.422-12.89l-0.359-0.031-0.359-0.063c-36.762-5.911-114.281-11.641-114.281-11.641l-11.141-0.813-0.438-11.172c0 0-4.111-101.231 0.016-153.781 2.349-29.907 6.109-62.26 14.375-89.735l0.125-0.438 0.156-0.406c27.513-72.435 67.743-121.81 121.875-164.422 16.589-13.050 48.422-35.156 48.422-35.156l6.953-4.828 7.063 4.656c0 0 31.791 20.834 48.688 34.125 54.134 42.599 94.363 91.96 121.875 164.406l0.156 0.406 0.125 0.438c8.265 27.478 12.026 59.827 14.375 89.735 4.127 52.553 0.015 153.781 0.015 153.781l-0.438 11.172-11.14 0.813c0 0-77.517 5.73-114.281 11.64l-0.36 0.063-0.36 0.032c-18.206 1.856-62.109 14.015-62.109 14.015l-3.25 0.938zM249.813 479.219c7.861-2.253 40.94-11.521 62.469-13.844 30.813-4.954 83.046-9.302 105.219-11.031 0.801-24.738 2.841-99.155-0.344-139.719-2.279-29.017-6.050-59.927-13.25-84.078-25.999-68.255-62.356-112.727-113.813-153.219-11.892-9.354-31.301-22.403-39.922-28.156-8.559 6.007-28.090 19.782-40.266 29.36-51.456 40.505-87.814 84.99-113.813 153.235-7.201 24.147-10.972 55.062-13.25 84.078-3.185 40.562-1.145 114.981-0.344 139.719 22.173 1.729 74.407 6.078 105.219 11.031 21.087 2.26 54.125 10.576 62.094 12.625zM250 440c-78.424 0-142-63.576-142-142s63.576-142 142-142c78.424 0 142 63.575 142 142s-63.575 142-142 142z" />
<glyph unicode="&#x6c;" d="M250.172 505.109l-3.281-0.844c0 0-43.745-10.986-62.422-12.89l-0.359-0.031-0.359-0.063c-36.762-5.911-114.281-11.641-114.281-11.641l-11.141-0.813-0.438-11.172c0 0-4.111-101.231 0.016-153.781 2.349-29.907 6.109-62.26 14.375-89.735l0.125-0.438 0.156-0.406c27.513-72.435 67.743-121.81 121.875-164.422 16.589-13.050 48.422-35.156 48.422-35.156l6.953-4.828 7.063 4.656c0 0 31.791 20.834 48.688 34.125 54.134 42.599 94.363 91.96 121.875 164.406l0.156 0.406 0.125 0.438c8.265 27.478 12.026 59.827 14.375 89.735 4.127 52.553 0.015 153.781 0.015 153.781l-0.438 11.172-11.14 0.813c0 0-77.517 5.73-114.281 11.64l-0.36 0.063-0.36 0.032c-18.206 1.856-62.109 14.015-62.109 14.015zM249.813 479.219c7.861-2.253 40.94-11.521 62.469-13.844 15.045-2.419 35.188-4.683 54.453-6.578l-262.172-247.609c-2.94 6.618-5.76 13.466-8.469 20.578-7.201 24.147-10.972 55.062-13.25 84.078-3.185 40.562-1.145 114.981-0.344 139.719 22.173 1.729 74.407 6.078 105.219 11.031 21.087 2.26 54.125 10.576 62.094 12.625zM418.86 367.188c-0.099-19.297-0.567-38.091-1.703-52.563-2.279-29.017-6.050-59.927-13.25-84.078-25.999-68.255-62.356-112.727-113.813-153.219-11.892-9.354-31.301-22.403-39.922-28.156-8.559 6.007-28.090 19.782-40.266 29.36-17.298 13.616-32.887 27.685-46.953 42.953z" />
<glyph unicode="&#x6d;" d="M249.828 505.109l3.281-0.844c0 0 43.746-10.986 62.422-12.89l0.36-0.031 0.36-0.063c36.762-5.911 114.281-11.641 114.281-11.641l11.14-0.813 0.438-11.172c0 0 4.111-101.231-0.015-153.781-2.349-29.907-6.108-62.26-14.375-89.735l-0.125-0.438-0.156-0.406c-27.512-72.435-67.743-121.81-121.875-164.422-16.589-13.050-48.422-35.156-48.422-35.156l-6.953-4.828-7.063 4.656c0 0-31.791 20.834-48.688 34.125-54.134 42.599-94.362 91.96-121.875 164.406l-0.156 0.406-0.125 0.438c-8.265 27.478-12.026 59.827-14.375 89.735-4.127 52.553-0.016 153.781-0.016 153.781l0.438 11.172 11.141 0.813c0 0 77.517 5.73 114.281 11.64l0.359 0.063 0.359 0.031c18.206 1.856 62.109 14.016 62.109 14.016zM250.188 479.219c-7.861-2.254-40.94-11.521-62.469-13.844-15.044-2.419-35.188-4.683-54.453-6.578l262.172-247.609c2.94 6.618 5.76 13.466 8.469 20.578 7.2 24.147 10.971 55.062 13.25 84.078 3.185 40.562 1.145 114.981 0.344 139.719-22.173 1.729-74.408 6.078-105.219 11.031-21.087 2.26-54.125 10.576-62.094 12.625zM81.141 367.188c0.1-19.297 0.567-38.091 1.703-52.563 2.278-29.017 6.049-59.927 13.25-84.078 25.999-68.255 62.356-112.727 113.813-153.219 11.892-9.354 31.302-22.403 39.922-28.156 8.559 6.007 28.090 19.782 40.266 29.36 17.298 13.616 32.887 27.685 46.953 42.953z" />
<glyph unicode="&#x6e;" d="M250.172 505.109l-3.281-0.844c0 0-43.745-10.986-62.422-12.89l-0.359-0.031-0.359-0.063c-36.762-5.911-114.281-11.641-114.281-11.641l-11.141-0.813-0.438-11.172c0 0-4.111-101.231 0.016-153.781 2.349-29.907 6.109-62.26 14.375-89.735l0.125-0.438 0.156-0.406c27.513-72.435 67.743-121.81 121.875-164.422 16.589-13.050 48.422-35.156 48.422-35.156l6.953-4.828 7.063 4.656c0 0 31.791 20.834 48.688 34.125 54.134 42.599 94.363 91.96 121.875 164.406l0.156 0.406 0.125 0.438c8.265 27.478 12.026 59.827 14.375 89.735 4.127 52.553 0.015 153.781 0.015 153.781l-0.438 11.172-11.14 0.813c0 0-77.517 5.73-114.281 11.64l-0.36 0.063-0.36 0.032c-18.206 1.856-62.109 14.015-62.109 14.015l-3.25 0.938zM249.813 479.219c7.861-2.253 40.94-11.521 62.469-13.844 30.813-4.954 83.046-9.302 105.219-11.031 0.627-19.372 2.004-69.156 1.047-109.344h-337.063c-1.015 40.392 0.382 90.995 1.016 110.563 22.173 1.729 74.407 6.077 105.219 11.031 21.087 2.26 54.125 10.576 62.094 12.625zM110.234 199h280.11c-24.693-51.087-57.177-87.778-100.25-121.672-11.892-9.354-31.301-22.403-39.922-28.156-8.559 6.007-28.090 19.782-40.266 29.36-42.73 33.637-75.051 70.016-99.672 120.469z" />
<glyph unicode="&#x6f;" d="M250.172 505.109l-3.281-0.844c0 0-43.745-10.986-62.422-12.89l-0.359-0.031-0.359-0.063c-36.762-5.911-114.281-11.641-114.281-11.641l-11.141-0.813-0.438-11.172c0 0-4.111-101.231 0.016-153.781 2.349-29.907 6.109-62.26 14.375-89.735l0.125-0.438 0.156-0.406c27.513-72.435 67.743-121.81 121.875-164.422 16.589-13.050 48.422-35.156 48.422-35.156l6.953-4.828 7.063 4.656c0 0 31.791 20.834 48.688 34.125 54.134 42.599 94.363 91.96 121.875 164.406l0.156 0.406 0.125 0.438c8.265 27.478 12.026 59.827 14.375 89.735 4.127 52.553 0.015 153.781 0.015 153.781l-0.438 11.172-11.14 0.813c0 0-77.517 5.73-114.281 11.64l-0.36 0.063-0.36 0.032c-18.206 1.856-62.109 14.015-62.109 14.015zM171 464.219v-351.156c-31.645 32.086-56.016 69.118-74.906 118.703-7.201 24.147-10.972 55.062-13.25 84.078-3.185 40.562-1.145 114.981-0.344 139.719 18.531 1.445 58.028 4.728 88.5 8.656zM329 463c30.473-3.928 69.969-7.211 88.5-8.656 0.801-24.738 2.841-99.155-0.344-139.719-2.279-29.017-6.050-59.927-13.25-84.078-18.89-49.592-43.261-86.625-74.906-118.703z" />
<glyph unicode="&#x70;" d="M250.172 505.109l-3.281-0.844c0 0-43.745-10.986-62.422-12.89l-0.359-0.031-0.359-0.063c-36.762-5.911-114.281-11.641-114.281-11.641l-11.141-0.813-0.438-11.172c0 0-4.111-101.231 0.016-153.781 2.349-29.907 6.109-62.26 14.375-89.735l0.125-0.438 0.156-0.406c27.513-72.435 67.743-121.81 121.875-164.422 16.589-13.050 48.422-35.156 48.422-35.156l6.953-4.828 7.063 4.656c0 0 31.791 20.834 48.688 34.125 54.134 42.599 94.363 91.96 121.875 164.406l0.156 0.406 0.125 0.438c8.265 27.478 12.026 59.827 14.375 89.735 4.127 52.553 0.015 153.781 0.015 153.781l-0.438 11.172-11.14 0.813c0 0-77.517 5.73-114.281 11.64l-0.36 0.063-0.36 0.032c-18.206 1.856-62.109 14.015-62.109 14.015zM204 469.015v-136.015h-122.141c-1.698 41.731-0.058 101.005 0.641 122.563 22.173 1.729 74.407 6.077 105.219 11.031 4.928 0.528 10.521 1.389 16.281 2.422zM296 467.938c5.74-1.103 11.318-2.027 16.281-2.563 30.813-4.954 83.046-9.302 105.219-11.031 0.692-21.349 2.306-79.685 0.688-121.344h-122.188zM91.313 251h112.688v-167.735c-48.343 39.26-82.915 82.901-107.906 148.5-1.799 6.032-3.38 12.493-4.781 19.235zM296 251h112.938c-1.462-7.18-3.125-14.060-5.031-20.453-24.991-65.61-59.562-109.237-107.906-148.485z" />
<glyph unicode="&#x71;" d="M250.172 505.109l-3.281-0.844c0 0-43.745-10.986-62.422-12.89l-0.359-0.031-0.359-0.063c-36.762-5.911-114.281-11.641-114.281-11.641l-11.141-0.813-0.438-11.172c0 0-4.111-101.231 0.016-153.781 2.349-29.907 6.109-62.26 14.375-89.735l0.125-0.438 0.156-0.406c27.513-72.435 67.743-121.81 121.875-164.422 16.589-13.050 48.422-35.156 48.422-35.156l6.953-4.828 7.063 4.656c0 0 31.791 20.834 48.688 34.125 54.134 42.599 94.363 91.96 121.875 164.406l0.156 0.406 0.125 0.438c8.265 27.478 12.026 59.827 14.375 89.735 4.127 52.553 0.015 153.781 0.015 153.781l-0.438 11.172-11.14 0.813c0 0-77.517 5.73-114.281 11.64l-0.36 0.063-0.36 0.032c-18.206 1.856-62.109 14.015-62.109 14.015zM249.813 479.219c7.861-2.253 40.94-11.521 62.469-13.844 30.813-4.954 83.046-9.302 105.219-11.031 0.801-24.738 2.841-99.155-0.344-139.719-2.279-29.017-6.050-59.927-13.25-84.078-10.334-27.13-36.203-71.36-36.203-71.36l-285.203 296.375c0 0 74.407 6.077 105.219 11.031 21.087 2.26 54.125 10.576 62.094 12.625z" />
<glyph unicode="&#x72;" d="M249.828 505.109l3.281-0.844c0 0 43.746-10.986 62.422-12.89l0.36-0.031 0.36-0.063c36.762-5.911 114.281-11.641 114.281-11.641l11.14-0.813 0.438-11.172c0 0 4.111-101.231-0.015-153.781-2.349-29.907-6.108-62.26-14.375-89.735l-0.125-0.438-0.156-0.406c-27.512-72.435-67.743-121.81-121.875-164.422-16.589-13.050-48.422-35.156-48.422-35.156l-6.953-4.828-7.063 4.656c0 0-31.791 20.834-48.688 34.125-54.134 42.599-94.362 91.96-121.875 164.406l-0.156 0.406-0.125 0.438c-8.265 27.478-12.026 59.827-14.375 89.735-4.127 52.553-0.016 153.781-0.016 153.781l0.438 11.172 11.141 0.813c0 0 77.517 5.73 114.281 11.64l0.359 0.063 0.359 0.031c18.206 1.856 62.109 14.016 62.109 14.016zM250.188 479.219c-7.861-2.254-40.94-11.521-62.469-13.844-30.813-4.954-83.046-9.303-105.219-11.032-0.802-24.737-2.841-99.155 0.344-139.719 2.278-29.017 6.049-59.927 13.25-84.078 10.334-27.13 36.203-71.359 36.203-71.359l285.203 296.375c0 0-74.408 6.077-105.219 11.031-21.087 2.26-54.125 10.576-62.094 12.625z" />
<glyph unicode="&#x73;" d="M250.172 505.109l-3.281-0.844c0 0-43.745-10.986-62.422-12.89l-0.359-0.031-0.359-0.063c-36.762-5.911-114.281-11.641-114.281-11.641l-11.141-0.813-0.438-11.172c0 0-4.111-101.231 0.016-153.781 2.349-29.907 6.109-62.26 14.375-89.735l0.125-0.438 0.156-0.406c27.513-72.435 67.743-121.81 121.875-164.422 16.589-13.050 48.422-35.156 48.422-35.156l6.953-4.828 7.063 4.656c0 0 31.791 20.834 48.688 34.125 54.134 42.599 94.363 91.96 121.875 164.406l0.156 0.406 0.125 0.438c8.265 27.478 12.026 59.827 14.375 89.735 4.127 52.553 0.015 153.781 0.015 153.781l-0.438 11.172-11.14 0.813c0 0-77.517 5.73-114.281 11.64l-0.36 0.063-0.36 0.032c-18.206 1.856-62.109 14.015-62.109 14.015l-3.25 0.938zM249.859 432.5c6.13-1.769 31.915-9.052 48.703-10.875 24.029-3.889 64.772-7.299 82.063-8.656 0.625-19.417 2.218-77.817-0.265-109.656-1.776-22.775-4.728-47.043-10.344-66-20.274-53.575-48.623-88.483-88.75-120.265-9.274-7.342-24.402-17.578-31.125-22.094-6.674 4.715-21.911 15.514-31.406 23.031-40.126 31.793-68.476 66.715-88.75 120.281-5.615 18.953-8.567 43.224-10.344 66-2.484 31.838-0.891 90.255-0.266 109.672 17.291 1.357 58.035 4.768 82.063 8.657 16.444 1.773 42.208 8.298 48.422 9.906z" />
<glyph unicode="&#x74;" d="M250.172 505.109l-3.281-0.844c0 0-43.745-10.986-62.422-12.89l-0.359-0.031-0.359-0.063c-36.762-5.911-114.281-11.641-114.281-11.641l-11.141-0.813-0.438-11.172c0 0-4.111-101.231 0.016-153.781 2.349-29.907 6.109-62.26 14.375-89.735l0.125-0.438 0.156-0.406c27.513-72.435 67.743-121.81 121.875-164.422 16.589-13.050 48.422-35.156 48.422-35.156l6.953-4.828 7.063 4.656c0 0 31.791 20.834 48.688 34.125 54.134 42.599 94.363 91.96 121.875 164.406l0.156 0.406 0.125 0.438c8.265 27.478 12.026 59.827 14.375 89.735 4.127 52.553 0.015 153.781 0.015 153.781l-0.438 11.172-11.14 0.813c0 0-77.517 5.73-114.281 11.64l-0.36 0.063-0.36 0.032c-18.205 1.856-62.109 14.015-62.109 14.015l-3.25 0.938zM249.813 479.219c7.861-2.253 40.94-11.521 62.469-13.844 29.85-4.799 79.561-9.012 102.813-10.844l-166.031-173.922-165.766 175.015c22.553 1.764 73.929 6.066 104.422 10.969 21.087 2.26 54.125 10.576 62.094 12.625zM249.609 280l118.391-120.36c-21.135-31.824-46.755-57.8-77.906-82.313-11.892-9.354-31.301-22.403-39.922-28.156-8.559 6.007-28.090 19.782-40.266 29.36-31.39 24.709-57.162 50.9-78.391 83.063l118.094 118.406z" />
<glyph unicode="&#x75;" d="M250.172 505.109l-3.281-0.844c0 0-43.745-10.986-62.422-12.89l-0.359-0.031-0.359-0.063c-36.762-5.911-114.281-11.641-114.281-11.641l-11.141-0.813-0.438-11.172c0 0-4.111-101.231 0.016-153.781 2.349-29.907 6.109-62.26 14.375-89.735l0.125-0.438 0.156-0.406c27.513-72.435 67.743-121.81 121.875-164.422 16.589-13.050 48.422-35.156 48.422-35.156l6.953-4.828 7.063 4.656c0 0 31.791 20.834 48.688 34.125 54.134 42.599 94.363 91.96 121.875 164.406l0.156 0.406 0.125 0.438c8.265 27.478 12.026 59.827 14.375 89.735 4.127 52.553 0.015 153.781 0.015 153.781l-0.438 11.172-11.14 0.813c0 0-77.517 5.73-114.281 11.64l-0.36 0.063-0.36 0.032c-18.206 1.856-62.109 14.015-62.109 14.015zM249.813 479.219c7.861-2.253 40.94-11.521 62.469-13.844 18.045-2.901 43.415-5.591 65.813-7.672l-125.797-126.844-127.281 128.359c21.604 2.038 45.495 4.608 62.703 7.375 21.087 2.26 54.125 10.576 62.094 12.625zM81.344 405.735l122.609-123.641-89.266-91.891c-6.726 12.858-12.909 26.639-18.594 41.563-7.201 24.147-10.972 55.062-13.25 84.078-1.878 23.917-1.93 59.557-1.5 89.891zM418.703 401.156c0.377-29.569 0.262-63.5-1.547-86.531-2.279-29.017-6.050-59.927-13.25-84.078-4.887-12.829-10.147-24.814-15.797-36.094l-87.469 87.641zM252.297 233.344l97.531-98.359c-17.238-21.13-37.019-39.781-59.735-57.656-11.892-9.354-31.301-22.403-39.922-28.156-8.559 6.007-28.090 19.782-40.266 29.36-21.566 16.976-40.483 34.653-57.094 54.485z" />
<glyph unicode="&#x76;" d="M250.172 505.109l-3.281-0.844c0 0-43.745-10.986-62.422-12.89l-0.359-0.031-0.359-0.063c-36.762-5.911-114.281-11.641-114.281-11.641l-11.141-0.813-0.438-11.172c0 0-4.111-101.231 0.016-153.781 2.349-29.907 6.109-62.26 14.375-89.735l0.125-0.438 0.156-0.406c27.513-72.435 67.743-121.81 121.875-164.422 16.589-13.050 48.422-35.156 48.422-35.156l6.953-4.828 7.063 4.656c0 0 31.791 20.834 48.688 34.125 54.134 42.599 94.363 91.96 121.875 164.406l0.156 0.406 0.125 0.438c8.265 27.478 12.026 59.827 14.375 89.735 4.127 52.553 0.015 153.781 0.015 153.781l-0.438 11.172-11.14 0.813c0 0-77.517 5.73-114.281 11.64l-0.36 0.063-0.36 0.032c-18.206 1.856-62.109 14.015-62.109 14.015l-3.25 0.938zM249.813 479.219c7.861-2.253 40.94-11.521 62.469-13.844 30.813-4.954 83.046-9.302 105.219-11.031 0.801-24.738 2.841-99.155-0.344-139.719-1.848-23.53-4.672-48.312-9.515-69.719l-157.641 157.156-158.141-153.594c-4.531 20.863-7.234 44.691-9.016 67.375-3.185 40.562-1.145 114.981-0.344 139.719 22.173 1.729 74.407 6.077 105.219 11.031 21.087 2.26 54.125 10.576 62.094 12.625zM250 283.063l121.563-117.938c-21.803-34.356-48.544-61.889-81.469-87.797-11.892-9.354-31.301-22.403-39.922-28.156-8.559 6.007-28.090 19.782-40.266 29.36-32.154 25.311-58.403 52.176-79.922 85.422l120.016 119.11z" />
</font>
</defs>
</svg>
